<?xml version="1.0" encoding="UTF-8"?><svg id="Calque_1" xmlns="http://www.w3.org/2000/svg" width="24" height="24" viewBox="0 0 24 24"><defs><style>.cls-1{fill:#999;}.cls-2{fill:#b9b9b9;}</style></defs><path class="cls-2" d="M14.943,13c-.787-2.291-1.509-2.846-2.943-2.966V3.5c0-.276-.224-.5-.5-.5h-1c-.276,0-.5,.224-.5,.5v6.534c-1.434,.12-2.156,.676-2.943,2.966h7.886Z"/><path class="cls-2" d="M15.135,20l-1.042-1.042c-.383-.383-.593-.891-.593-1.432s.211-1.05,.593-1.432,.891-.593,1.432-.593c.06,0,.117,.012,.176,.017l-.44-1.517H6.738l-1.553,5.361c-.093,.32,.147,.639,.48,.639h1.452l1.159-2.653-.287,2.653h7.146Z"/><polygon class="cls-1" points="20.956 16.465 18.739 18.682 16.523 16.465 15.415 17.574 18.739 20.898 22.064 17.574 20.956 16.465"/></svg>