<svg xmlns="http://www.w3.org/2000/svg" width="24" height="24" viewBox="0 0 24 24">
  <rect x="11" y="7" width="2" height="7" style="fill: #ccc"/>
  <polygon points="12 4 8 8 16 8 12 4" style="fill: #ccc"/>
  <polygon points="18.956 15.465 16.739 17.682 14.523 15.465 13.415 16.574 16.739 19.898 20.064 16.574 18.956 15.465" style="fill: #999"/>
  <g>
    <polygon points="18 14 20 14 20 9 16 9 16 11 18 11 18 14" style="fill: #ccc"/>
    <polygon points="6 18 6 11 8 11 8 9 4 9 4 20 14 20 12 18 6 18" style="fill: #ccc"/>
  </g>
</svg>
