<svg xmlns="http://www.w3.org/2000/svg" width="24" height="24" viewBox="0 0 24 24">
  <path d="M9.318,5.709a5.1,5.1,0,0,1,6.319.88L17,4h1v6H12.455V9l2.021-1.214A3.377,3.377,0,0,0,10.284,7.1,2.776,2.776,0,0,0,9.1,8.3,3.368,3.368,0,0,0,12,13.333,3.329,3.329,0,0,0,14.733,11.9l1.192,1.192A4.988,4.988,0,0,1,12,15,5.059,5.059,0,0,1,7.693,7.34,3.977,3.977,0,0,1,9.318,5.709Z" style="fill: #c8c8c8"/>
  <polygon points="18 12.712 18 18 6 18 6 12.753 4 11.267 4 20 20 20 20 11.226 18 12.712" style="fill: #ccc"/>
</svg>
