<svg xmlns="http://www.w3.org/2000/svg" width="24" height="24" viewBox="0 0 24 24">
  <path d="M14.833,12.564a1.443,1.443,0,0,0-.809.169.54.54,0,0,0-.238.465.548.548,0,0,0,.09.307.646.646,0,0,0,.3.227,1.32,1.32,0,0,0,.523.09,2.4,2.4,0,0,0,.36-.027,2.158,2.158,0,0,0,.307-.068V12.606c-.085-.014-.166-.025-.244-.032S14.946,12.564,14.833,12.564Z" style="fill: #ccc"/>
  <path d="M17.167,4H6.833A2.833,2.833,0,0,0,4,6.833V16.6a2.833,2.833,0,0,0,2.833,2.833H17.167A2.833,2.833,0,0,0,20,16.6V6.833A2.833,2.833,0,0,0,17.167,4Zm-5.923,9.985a2.131,2.131,0,0,1-.925.724,3.508,3.508,0,0,1-1.4.254,5.222,5.222,0,0,1-1.073-.1,3.534,3.534,0,0,1-.809-.259.181.181,0,0,1-.085-.18V13.166a.063.063,0,0,1,.027-.058.074.074,0,0,1,.069,0,3.694,3.694,0,0,0,1.913.55,1.524,1.524,0,0,0,.862-.185.551.551,0,0,0,.259-.46A.628.628,0,0,0,10,12.7a.921.921,0,0,0-.3-.28,3.481,3.481,0,0,0-.581-.286L8.6,11.908a3.931,3.931,0,0,1-1.009-.586,1.688,1.688,0,0,1-.5-.672,2.136,2.136,0,0,1-.137-.771A1.9,1.9,0,0,1,8.078,8.108a3.217,3.217,0,0,1,1.4-.27,6.817,6.817,0,0,1,.947.063,2.248,2.248,0,0,1,.7.2.147.147,0,0,1,.074.138V9.4c0,.032,0,.069-.029.088a.065.065,0,0,1-.067-.007,2.929,2.929,0,0,0-.74-.264,3.98,3.98,0,0,0-.877-.095,2.15,2.15,0,0,0-.518.053,1.244,1.244,0,0,0-.343.132.505.505,0,0,0-.2.2.535.535,0,0,0-.064.248.5.5,0,0,0,.1.3,1.051,1.051,0,0,0,.317.265q.3.171.613.312l.391.148a4.247,4.247,0,0,1,1.089.607,1.857,1.857,0,0,1,.55.7,2.076,2.076,0,0,1,.158.809A1.844,1.844,0,0,1,11.244,13.985Zm5.545.5q-.476.18-.846.285a4.633,4.633,0,0,1-.719.148,6.085,6.085,0,0,1-.74.042,2.9,2.9,0,0,1-1.073-.19,1.769,1.769,0,0,1-.777-.581,1.606,1.606,0,0,1-.3-.994,1.454,1.454,0,0,1,.312-.951,1.868,1.868,0,0,1,.851-.571,3.715,3.715,0,0,1,1.237-.191h.386a1.724,1.724,0,0,1,.238.011v-.063a.683.683,0,0,0-.037-.185.536.536,0,0,0-.143-.227.787.787,0,0,0-.3-.175,1.629,1.629,0,0,0-.524-.069,3.677,3.677,0,0,0-.761.074,3.469,3.469,0,0,0-.645.2.1.1,0,0,1-.063,0A.049.049,0,0,1,12.856,11V9.931a.117.117,0,0,1,.074-.116,3.4,3.4,0,0,1,.788-.238,4.872,4.872,0,0,1,.861-.079,2.469,2.469,0,0,1,1.264.285,1.779,1.779,0,0,1,.713.772,2.5,2.5,0,0,1,.233,1.089v2.04c0,.134,0,.261,0,.381s.009.243.016.37C16.81,14.463,16.8,14.481,16.789,14.488Z" style="fill: #ccc"/>
</svg>
