<svg xmlns="http://www.w3.org/2000/svg" width="24" height="24" viewBox="0 0 24 24">
  <path d="M14.357,12.014a.75.75,0,0,0,.539-.19.679.679,0,0,0,.2-.518.9.9,0,0,0-.079-.381.622.622,0,0,0-.243-.27.791.791,0,0,0-.418-.1.746.746,0,0,0-.544.19.733.733,0,0,0-.2.55.753.753,0,0,0,.185.5A.691.691,0,0,0,14.357,12.014Z" style="fill: #ccc"/>
  <path d="M15.425,14.926a3.484,3.484,0,0,0-.539-.058l-1.163-.053a.931.931,0,0,0-.29.3.6.6,0,0,0-.112.275.476.476,0,0,0,.143.317,1,1,0,0,0,.439.259,2.2,2.2,0,0,0,.7.1,2.616,2.616,0,0,0,.772-.095.978.978,0,0,0,.433-.249.49.49,0,0,0,.137-.333.363.363,0,0,0-.137-.312A.957.957,0,0,0,15.425,14.926Z" style="fill: #ccc"/>
  <path d="M17.167,4H6.833A2.833,2.833,0,0,0,4,6.833V16.6a2.834,2.834,0,0,0,2.833,2.833H17.167A2.833,2.833,0,0,0,20,16.6V6.833A2.833,2.833,0,0,0,17.167,4Zm-5.815,9.985a2.131,2.131,0,0,1-.925.724,3.508,3.508,0,0,1-1.395.254,5.222,5.222,0,0,1-1.073-.1A3.534,3.534,0,0,1,7.15,14.6a.181.181,0,0,1-.085-.18V13.166a.063.063,0,0,1,.027-.058.074.074,0,0,1,.069,0,3.694,3.694,0,0,0,1.913.55,1.524,1.524,0,0,0,.862-.185.551.551,0,0,0,.259-.46.628.628,0,0,0-.085-.322.921.921,0,0,0-.3-.28,3.481,3.481,0,0,0-.581-.286L8.7,11.908A3.931,3.931,0,0,1,7.7,11.322a1.688,1.688,0,0,1-.5-.672,2.136,2.136,0,0,1-.137-.771A1.9,1.9,0,0,1,8.186,8.108a3.2,3.2,0,0,1,1.395-.27,6.817,6.817,0,0,1,.947.063,2.248,2.248,0,0,1,.7.2.147.147,0,0,1,.074.138V9.4c0,.032,0,.069-.029.088a.065.065,0,0,1-.067-.007,2.929,2.929,0,0,0-.74-.264,3.98,3.98,0,0,0-.877-.095,2.15,2.15,0,0,0-.518.053,1.244,1.244,0,0,0-.343.132.505.505,0,0,0-.2.2.535.535,0,0,0-.064.248.5.5,0,0,0,.1.3,1.051,1.051,0,0,0,.317.265q.3.171.613.312l.391.148a4.247,4.247,0,0,1,1.089.607,1.857,1.857,0,0,1,.55.7,2.076,2.076,0,0,1,.158.809A1.844,1.844,0,0,1,11.352,13.985Zm5.59,2.173a2.32,2.32,0,0,1-.962.719,3.721,3.721,0,0,1-1.475.264,3.639,3.639,0,0,1-1.448-.248,1.907,1.907,0,0,1-.835-.629,1.316,1.316,0,0,1-.265-.751.843.843,0,0,1,.1-.364,2.028,2.028,0,0,1,.3-.434,5.6,5.6,0,0,1,.539-.528l.041-.033a1.4,1.4,0,0,1-.125-.243,1.329,1.329,0,0,1-.09-.544,1.564,1.564,0,0,1,.084-.444,1.311,1.311,0,0,1,.119-.244c-.009-.006-.019-.009-.029-.015a1.521,1.521,0,0,1-.512-.545,1.633,1.633,0,0,1-.19-.814,1.707,1.707,0,0,1,.253-.909,1.782,1.782,0,0,1,.735-.655A2.56,2.56,0,0,1,14.347,9.5c.19,0,.375.009.555.026s.329.037.449.059q.073.01.138.015c.042,0,.081.006.116.006h1.448c.042,0,.064.025.064.074v.983a.061.061,0,0,1-.044.074.076.076,0,0,1-.03,0c-.071,0-.182,0-.333-.016s-.284-.023-.4-.037a1.408,1.408,0,0,1,.111.28,1.471,1.471,0,0,1,.048.4,1.586,1.586,0,0,1-.27.947,1.606,1.606,0,0,1-.745.56,2.923,2.923,0,0,1-1.068.185c-.115,0-.23-.008-.345-.019a.426.426,0,0,0-.025.093.862.862,0,0,0,0,.19.357.357,0,0,0,.058.2.8.8,0,0,0,.061.068l1.076.053a3.348,3.348,0,0,1,1.215.238,1.421,1.421,0,0,1,.656.54,1.443,1.443,0,0,1,.2.756A1.611,1.611,0,0,1,16.942,16.158Z" style="fill: #ccc"/>
</svg>
