<svg xmlns="http://www.w3.org/2000/svg" width="24" height="24" viewBox="0 0 24 24">
  <path d="M10.758,9.324a1.958,1.958,0,0,0-.772-.133c-.169,0-.319,0-.449.006a2.639,2.639,0,0,0-.27.016V11.4c.092.007.176.011.254.01H9.87a2.511,2.511,0,0,0,.756-.105,1.154,1.154,0,0,0,.539-.349,1.013,1.013,0,0,0,.206-.677,1.07,1.07,0,0,0-.153-.581A.989.989,0,0,0,10.758,9.324Z" style="fill: #ccc"/>
  <path d="M17.167,4H6.833A2.833,2.833,0,0,0,4,6.833V16.6a2.833,2.833,0,0,0,2.833,2.833H17.167A2.834,2.834,0,0,0,20,16.6V6.833A2.833,2.833,0,0,0,17.167,4Zm-4.75,7.644a2.207,2.207,0,0,1-1.057.8,4.188,4.188,0,0,1-1.48.248c-.155,0-.264,0-.327,0s-.159-.005-.286-.006v2.083a.083.083,0,0,1-.071.095h0a.1.1,0,0,1-.024,0H7.882c-.049,0-.074-.027-.074-.084V8.018c0-.049.021-.074.064-.074.113,0,.246,0,.4,0l.5-.011.571-.011q.3,0,.6,0a3.96,3.96,0,0,1,1.353.2,2.349,2.349,0,0,1,.882.539,2.072,2.072,0,0,1,.482.745,2.5,2.5,0,0,1,.148.851A2.353,2.353,0,0,1,12.417,11.644Zm4.366-.888a.064.064,0,0,1-.052.074H15.726v2.013a1.355,1.355,0,0,0,.117.75.452.452,0,0,0,.359.168,2.109,2.109,0,0,0,.389-.018c.035-.005.08-.02.113,0a.079.079,0,0,1,.027.069v.867c0,.078-.029.124-.085.137a3.633,3.633,0,0,1-.423.106,2.69,2.69,0,0,1-.507.042,1.753,1.753,0,0,1-.654-.1,1.191,1.191,0,0,1-.52-.368,1.471,1.471,0,0,1-.266-.61,3.484,3.484,0,0,1-.03-.677V10.83h-.624c-.056,0-.084-.032-.084-.1V9.688c0-.056.031-.084.095-.084h.624c.006-.12.015-.259.026-.418s.025-.317.042-.476.034-.287.048-.386a.183.183,0,0,1,.032-.058.116.116,0,0,1,.053-.037l1.258-.158a.062.062,0,0,1,.053,0q.021.01.021.063c-.015.162-.025.383-.032.661s-.014.548-.021.809h.983q.063,0,.063.084Z" style="fill: #ccc"/>
</svg>
